<?xml version="1.0" encoding="UTF-8"?>
<svg fill="none" viewBox="0 0 40 40" xmlns="http://www.w3.org/2000/svg">
<path d="m39.902 37.386-1.6976-5.9903c-0.3346-1.1804-0.2738-2.443 0.2069-3.5717 1.1135-2.6133 1.6854-5.5095 1.5759-8.5518-0.3772-10.563-9.0599-19.081-19.626-19.27-11.332-0.20079-20.56 9.0265-20.359 20.359 0.18862 10.566 8.707 19.249 19.267 19.626 2.659 0.0943 5.2054-0.3316 7.551-1.1834 1.868-0.6785 3.8972-0.7941 5.8077-0.2495l4.7521 1.3508c1.5363 0.4381 2.9571-0.9827 2.522-2.519zm-28.838-17.387c0-4.9346 4.0006-8.9352 8.9352-8.9352s8.9352 4.0006 8.9352 8.9352-4.0006 8.9352-8.9352 8.9352-8.9352-4.0006-8.9352-8.9352z" fill="url(#a)"/>
<defs>
<linearGradient id="a" x1="4.8517" x2="40.375" y1="-.00047468" y2="2.97" gradientUnits="userSpaceOnUse">
<stop stop-color="#DF5950" offset="0"/>
<stop stop-color="#451046" offset="1"/>
</linearGradient>
</defs>
</svg>
